<svg width="534" height="534" viewBox="0 0 534 534" fill="none" xmlns="http://www.w3.org/2000/svg">
<g clip-path="url(#clip0_1_2)">
<path d="M266.667 533.333C413.943 533.333 533.333 413.943 533.333 266.667C533.333 119.391 413.943 0 266.667 0C119.391 0 0 119.391 0 266.667C0 413.943 119.391 533.333 266.667 533.333Z" fill="url(#paint0_linear_1_2)"/>
<path d="M298.488 204.045L234.806 216.594C233.76 216.8 232.985 217.692 232.922 218.763L229.004 285.297C228.912 286.864 230.343 288.081 231.864 287.728L249.594 283.613C251.253 283.228 252.752 284.698 252.411 286.375L247.143 312.315C246.789 314.061 248.419 315.554 250.114 315.036L261.065 311.69C262.762 311.172 264.394 312.669 264.035 314.416L255.664 355.162C255.14 357.711 258.511 359.101 259.917 356.916L260.856 355.456L312.747 251.312C313.616 249.569 312.117 247.58 310.213 247.95L291.963 251.492C290.248 251.824 288.789 250.218 289.273 248.531L301.184 207.005C301.669 205.315 300.205 203.707 298.488 204.045Z" fill="url(#paint1_linear_1_2)"/>
</g>
<defs>
<linearGradient id="paint0_linear_1_2" x1="6.00017" y1="32.9999" x2="235" y2="344" gradientUnits="userSpaceOnUse">
<stop stop-color="#41D1FF"/>
<stop offset="1" stop-color="#BD34FE"/>
</linearGradient>
<linearGradient id="paint1_linear_1_2" x1="194.651" y1="8.81819" x2="236.076" y2="292.989" gradientUnits="userSpaceOnUse">
<stop stop-color="#FFEA83"/>
<stop offset="0.0833333" stop-color="#FFDD35"/>
<stop offset="1" stop-color="#FFA800"/>
</linearGradient>
<clipPath id="clip0_1_2">
<rect width="534" height="534" fill="white"/>
</clipPath>
</defs>
</svg>
